<mxfile host="app.diagrams.net" modified="2023-07-15T12:05:57.892Z" agent="Mozilla/5.0 (Windows NT 10.0; Win64; x64) AppleWebKit/537.36 (KHTML, like Gecko) Chrome/110.0.0.0 Safari/537.36 Edg/110.0.1587.63" version="21.5.2" etag="22JG7ZdPkcacAloGA5UD" type="github">
  <diagram name="第 1 页" id="Y1W59oRGQmCsW75rp7W3">
    <mxGraphModel>
      <root>
        <mxCell id="0" />
        <mxCell id="1" parent="0" />
      </root>
    </mxGraphModel>
  </diagram>
</mxfile>
